<svg width="247" height="247" viewBox="0 0 247 247" fill="none" xmlns="http://www.w3.org/2000/svg">
<mask id="mask0_22_130" style="mask-type:alpha" maskUnits="userSpaceOnUse" x="0" y="0" width="247" height="247">
<circle cx="123.5" cy="123.5" r="123.5" fill="#D9D9D9"/>
</mask>
<g mask="url(#mask0_22_130)">
<path d="M332 -25.0001C331 -32.0001 -12.5 5.99992 -49.5 -3.00008L-67.5 253L332 242C332.333 155.333 332.8 -19.4001 332 -25.0001Z" fill="#7700FF"/>
<g filter="url(#filter0_f_22_130)">
<path d="M150.312 20.4875C167.324 9.67136 189.704 21.0569 190.977 41.1756L200.898 197.885C202.194 218.364 180.725 232.483 162.435 223.179L20.0066 150.719C1.71724 141.414 0.48818 115.747 17.8046 104.737L150.312 20.4875Z" stroke="white" stroke-width="11"/>
</g>
<g filter="url(#filter1_f_22_130)">
<path d="M24.3667 84.7308C15.6315 66.5627 29.5759 45.6814 49.7045 46.7883L206.491 55.411C226.98 56.538 238.469 79.5224 227.074 96.5875L138.328 229.481C126.932 246.545 101.3 244.74 92.4078 226.247L24.3667 84.7308Z" stroke="#FF4F12" stroke-width="11"/>
</g>
</g>
<defs>
<filter id="filter0_f_22_130" x="-4.97754" y="5.80798" width="216.432" height="230.802" filterUnits="userSpaceOnUse" color-interpolation-filters="sRGB">
<feFlood flood-opacity="0" result="BackgroundImageFix"/>
<feBlend mode="normal" in="SourceGraphic" in2="BackgroundImageFix" result="shape"/>
<feGaussianBlur stdDeviation="2.5" result="effect1_foregroundBlur_22_130"/>
</filter>
<filter id="filter1_f_22_130" x="11.2029" y="36.2454" width="230.877" height="215.52" filterUnits="userSpaceOnUse" color-interpolation-filters="sRGB">
<feFlood flood-opacity="0" result="BackgroundImageFix"/>
<feBlend mode="normal" in="SourceGraphic" in2="BackgroundImageFix" result="shape"/>
<feGaussianBlur stdDeviation="2.5" result="effect1_foregroundBlur_22_130"/>
</filter>
</defs>
</svg>
