<svg width="5950" height="1556" viewBox="0 0 5950 1556" fill="none" xmlns="http://www.w3.org/2000/svg">
<path d="M1121.67 489.275H1395.8C1465.63 489.275 1520.81 506.715 1561.32 540.723C1601.84 575.603 1621.67 624.434 1621.67 688.09C1621.67 751.745 1601.84 800.577 1561.32 834.585C1520.81 869.465 1465.63 886.905 1395.8 886.905H1235.46V1099.67H1121.67V489.275ZM1392.36 784.009C1431.15 784.009 1459.6 775.289 1479.43 757.849C1498.39 741.282 1507.87 717.738 1507.87 688.09C1507.87 658.442 1498.39 634.898 1479.43 617.458C1459.6 600.89 1431.15 592.17 1392.36 592.17H1235.46V784.009H1392.36Z" fill="#101828"/>
<path d="M2078.24 1007.24C2056.69 1042.12 2027.38 1068.28 1992.03 1085.72C1955.83 1103.16 1917.9 1111.88 1877.38 1111.88C1836.86 1111.88 1798.93 1103.16 1763.59 1085.72C1727.38 1068.28 1698.07 1042.12 1676.52 1007.24C1654.96 973.232 1643.76 931.376 1643.76 883.417C1643.76 835.457 1654.96 793.601 1676.52 758.721C1698.07 724.714 1727.38 698.554 1763.59 681.114C1798.93 663.674 1836.86 654.954 1877.38 654.954C1917.9 654.954 1955.83 663.674 1992.03 681.114C2027.38 698.554 2056.69 724.714 2078.24 758.721C2099.79 793.601 2111 835.457 2111 883.417C2111 931.376 2099.79 973.232 2078.24 1007.24ZM1938.59 993.288C1956.69 983.696 1972.21 968.872 1983.41 949.688C1994.62 931.376 2000.65 908.705 2000.65 883.417C2000.65 858.129 1994.62 835.457 1983.41 816.273C1972.21 797.961 1956.69 783.137 1938.59 772.673C1919.62 763.081 1898.93 757.849 1877.38 757.849C1855.83 757.849 1835.14 763.081 1817.03 772.673C1798.07 783.137 1782.55 797.961 1771.34 816.273C1760.14 835.457 1754.1 858.129 1754.1 883.417C1754.1 908.705 1760.14 931.376 1771.34 949.688C1782.55 968.872 1798.07 983.696 1817.03 993.288C1835.14 1003.75 1855.83 1008.98 1877.38 1008.98C1898.93 1008.98 1919.62 1003.75 1938.59 993.288Z" fill="#101828"/>
<path d="M2506.21 1082.23C2474.32 1102.29 2435.52 1111.88 2391.56 1111.88C2349.32 1111.88 2311.38 1102.29 2277.76 1083.1C2243.28 1064.79 2216.56 1037.76 2196.73 1002.88C2176.9 968 2166.56 927.888 2166.56 883.417C2166.56 838.945 2176.9 798.833 2197.59 763.953C2217.42 729.946 2245 702.914 2279.49 683.73C2313.11 664.546 2351.04 654.954 2391.56 654.954C2437.25 654.954 2476.9 664.546 2510.52 682.858C2543.28 702.042 2567.42 729.074 2582.94 763.081L2489.83 817.145C2463.97 777.905 2431.21 757.849 2390.69 757.849C2357.94 757.849 2331.21 769.185 2309.66 791.857C2288.11 815.401 2276.9 845.921 2276.9 883.417C2276.9 921.784 2287.25 952.304 2308.8 974.976C2330.35 997.648 2357.07 1008.98 2390.69 1008.98C2415.69 1008.98 2435.52 1003.75 2451.9 993.288C2467.42 982.824 2482.94 967.128 2497.59 946.2L2587.25 995.904C2564.83 1034.27 2538.11 1063.05 2506.21 1082.23Z" fill="#101828"/>
<path d="M2744.34 766.569H2616.75V667.162H2980.55V766.569H2852.96V1099.67H2744.34V766.569Z" fill="#101828"/>
<path d="M3151.48 988.056C3173.04 1008.11 3199.76 1017.7 3231.66 1017.7C3258.38 1017.7 3279.07 1012.47 3293.73 1002.88C3308.38 993.288 3323.9 978.464 3340.28 958.408L3426.49 1002.01C3404.93 1039.5 3378.21 1067.41 3347.17 1084.85C3315.28 1103.16 3276.49 1111.88 3229.93 1111.88C3190.28 1111.88 3154.07 1102.29 3120.45 1083.1C3086.83 1063.92 3060.11 1036.89 3040.28 1002.01C3020.45 967.128 3010.11 927.888 3010.11 883.417C3010.11 838.945 3020.45 798.833 3040.28 763.953C3060.11 729.946 3087.69 702.914 3122.17 683.73C3155.8 664.546 3193.73 654.954 3235.11 654.954C3275.62 654.954 3310.97 663.674 3342.86 681.986C3374.76 700.298 3398.9 726.458 3417 758.721C3435.11 791.857 3443.73 829.353 3443.73 871.209V909.576H3114.42C3117.86 942.712 3129.93 968.872 3151.48 988.056ZM3159.24 763.081C3138.55 779.649 3123.9 800.577 3116.14 825.865H3342.86C3337.69 798.833 3325.62 777.033 3305.8 761.337C3285.97 746.513 3261.83 738.666 3231.66 738.666C3204.07 738.666 3179.93 746.514 3159.24 763.081Z" fill="#101828"/>
<path d="M3479.62 1099.67V1002.88C3487.38 1006.37 3497.73 1008.11 3509.8 1008.11C3523.59 1008.11 3533.93 1001.14 3540.83 988.056C3546.87 974.976 3551.18 949.688 3553.76 912.192L3567.55 667.162H3903.76V1099.67H3795.14V766.569H3662.38L3654.62 916.552C3652.04 981.08 3639.97 1029.04 3619.28 1059.56C3597.73 1090.08 3564.11 1105.78 3517.55 1105.78C3504.62 1105.78 3492.55 1104.03 3479.62 1099.67Z" fill="#101828"/>
<path d="M4123 988.056C4144.55 1008.11 4171.27 1017.7 4203.17 1017.7C4229.89 1017.7 4250.58 1012.47 4265.24 1002.88C4279.89 993.288 4295.41 978.464 4311.79 958.408L4398 1002.01C4376.45 1039.5 4349.72 1067.41 4318.69 1084.85C4286.79 1103.16 4248 1111.88 4201.45 1111.88C4161.79 1111.88 4125.58 1102.29 4091.96 1083.1C4058.34 1063.92 4031.62 1036.89 4011.79 1002.01C3991.96 967.128 3981.62 927.888 3981.62 883.417C3981.62 838.945 3991.96 798.833 4011.79 763.953C4031.62 729.946 4059.2 702.914 4093.69 683.73C4127.31 664.546 4165.24 654.954 4206.62 654.954C4247.13 654.954 4282.48 663.674 4314.38 681.986C4346.27 700.298 4370.41 726.458 4388.52 758.721C4406.62 791.857 4415.24 829.353 4415.24 871.209V909.576H4085.93C4089.38 942.712 4101.45 968.872 4123 988.056ZM4130.76 763.081C4110.07 779.649 4095.41 800.577 4087.65 825.865H4314.38C4309.2 798.833 4297.14 777.033 4277.31 761.337C4257.48 746.513 4233.34 738.666 4203.17 738.666C4175.58 738.666 4151.45 746.514 4130.76 763.081Z" fill="#101828"/>
<path d="M4686.3 871.209L4870.78 1099.67H4742.33L4600.09 919.168V1099.67H4491.47V667.162H4600.09V824.121L4738.89 667.162H4870.78L4686.3 871.209Z" fill="#101828"/>
<path d="M5318.58 1007.24C5297.03 1042.12 5267.72 1068.28 5232.37 1085.72C5196.17 1103.16 5158.24 1111.88 5117.72 1111.88C5077.2 1111.88 5039.27 1103.16 5003.92 1085.72C4967.72 1068.28 4938.41 1042.12 4916.86 1007.24C4895.3 973.232 4884.1 931.376 4884.1 883.417C4884.1 835.457 4895.3 793.601 4916.86 758.721C4938.41 724.714 4967.72 698.554 5003.92 681.114C5039.27 663.674 5077.2 654.954 5117.72 654.954C5158.24 654.954 5196.17 663.674 5232.37 681.114C5267.72 698.554 5297.03 724.714 5318.58 758.721C5340.13 793.601 5351.34 835.457 5351.34 883.417C5351.34 931.376 5340.13 973.232 5318.58 1007.24ZM5178.93 993.288C5197.03 983.696 5212.55 968.872 5223.75 949.688C5234.96 931.376 5240.99 908.705 5240.99 883.417C5240.99 858.129 5234.96 835.457 5223.75 816.273C5212.55 797.961 5197.03 783.137 5178.93 772.673C5159.96 763.081 5139.27 757.849 5117.72 757.849C5096.17 757.849 5075.48 763.081 5057.37 772.673C5038.41 783.137 5022.89 797.961 5011.68 816.273C5000.48 835.457 4994.44 858.129 4994.44 883.417C4994.44 908.705 5000.48 931.376 5011.68 949.688C5022.89 968.872 5038.41 983.696 5057.37 993.288C5075.48 1003.75 5096.17 1008.98 5117.72 1008.98C5139.27 1008.98 5159.96 1003.75 5178.93 993.288Z" fill="#101828"/>
<path d="M5429.31 667.162H5571.55L5689.65 970.616L5807.76 667.162H5950V1099.67H5846.55V825.865L5731.9 1099.67H5647.41L5532.76 825.865V1099.67H5429.31V667.162Z" fill="#101828"/>
<path d="M75.6619 1542.17L75.6869 1542.19C76.6122 1542.57 77.5124 1542.98 78.4502 1543.32C79.2004 1543.6 80.2257 1543.88 81.451 1544.15C92.1792 1547.54 103.57 1549.44 115.386 1549.53H713.747L321.308 1151.5C321.308 1151.5 321.233 1151.58 321.096 1151.71C248.525 1224.68 200.573 1272.89 165.213 1308.53C133.841 1340.17 112.398 1361.93 92.5168 1382.31C67.497 1407.57 50.8047 1424.39 50.7546 1424.46L50.6796 1424.53C38.4761 1437.62 30.9864 1456.52 30.9864 1475.92C30.9864 1506.4 49.4543 1531.28 75.6619 1542.17Z" fill="#FF4F12"/>
<path d="M30.8924 1475.95C30.8924 1456.55 38.3821 1437.65 50.5857 1424.57L50.6607 1424.48C50.6607 1424.48 67.403 1407.59 92.4353 1382.34C112.304 1361.95 133.747 1340.2 165.131 1308.55C200.467 1272.91 248.431 1224.71 321.002 1151.75C321.127 1151.62 321.214 1151.53 321.214 1151.53C342.558 1130.07 366.027 1106.47 391.935 1080.41C392.397 1079.96 392.872 1079.46 393.348 1079C510.832 960.84 678.08 792.523 923.314 545.36L384.47 0L79.4065 308.96C-11.7699 401.188 0.558638 461.543 0.558638 585.441V1433.08C0.558638 1483.21 31.7427 1525.7 75.5679 1542.18C49.3603 1531.29 30.8924 1506.43 30.8924 1475.95Z" fill="#7700FF"/>
<path d="M1117.51 1549.53V1253.43H1160.82V1486.08C1163.29 1479.74 1173.19 1462.82 1173.19 1462.82L1299.8 1253.43H1345.57V1549.53H1302.27V1316.03C1299.8 1322.38 1289.9 1339.3 1289.9 1339.3L1163.29 1549.53H1117.51Z" fill="#101828"/>
<path d="M1471.84 1549.53V1295.3H1383.17V1253.43H1605.46V1295.3H1516.38V1549.53H1471.84Z" fill="#101828"/>
<path d="M1757.06 1549.53V1253.43H1801.19V1507.66H1896.04V1253.43H1940.58V1507.66H2035.44V1253.43H2079.98V1549.53H1757.06Z" fill="#101828"/>
<path d="M2308.31 1549.53H2256.76L2179.23 1456.47V1549.53H2136.75V1339.72H2179.23V1421.36L2253.46 1339.72H2306.25L2214.69 1438.71L2308.31 1549.53Z" fill="#101828"/>
<path d="M2535.88 1444.63C2535.88 1516.96 2482.27 1555.46 2426.6 1555.46C2370.51 1555.46 2316.9 1516.96 2316.9 1444.63C2316.9 1372.29 2370.51 1333.8 2426.6 1333.8C2482.27 1333.8 2535.88 1372.29 2535.88 1444.63ZM2426.6 1515.27C2462.06 1515.27 2492.58 1487.78 2492.58 1444.63C2492.58 1401.48 2462.06 1373.98 2426.6 1373.98C2390.72 1373.98 2360.2 1401.48 2360.2 1444.63C2360.2 1487.78 2390.72 1515.27 2426.6 1515.27Z" fill="#101828"/>
<path d="M2570.07 1552.5C2561.41 1552.5 2553.16 1549.53 2553.16 1549.53V1511.04C2553.16 1511.04 2558.52 1513.58 2567.59 1513.58C2580.79 1513.58 2586.98 1505.12 2589.45 1464.51L2596.05 1339.72H2748.23V1549.53H2705.75V1379.06H2633.17L2628.63 1466.2C2625.74 1526.27 2610.9 1552.5 2570.07 1552.5Z" fill="#101828"/>
<path d="M2932.52 1549.53C2930.46 1540.65 2927.57 1528.38 2927.57 1512.31C2914.79 1539.38 2887.98 1555.46 2857.88 1555.46C2817.05 1555.46 2789.42 1529.23 2789.42 1490.31C2789.42 1448.43 2820.76 1428.55 2860.76 1422.63L2925.92 1412.9V1402.75C2925.92 1378.64 2911.08 1365.95 2882.62 1365.95C2855.4 1365.95 2840.56 1379.48 2840.56 1394.71C2840.56 1396.83 2840.56 1398.52 2840.97 1401.06L2801.79 1406.98C2800.96 1402.75 2800.55 1398.1 2800.55 1394.29C2800.55 1361.72 2832.31 1333.8 2882.62 1333.8C2937.47 1333.8 2968.81 1359.18 2968.81 1406.56V1497.5C2968.81 1520.77 2970.46 1534.31 2975 1549.53H2932.52ZM2866.12 1519.08C2901.59 1519.08 2925.92 1491.16 2925.92 1450.55V1444.63L2870.25 1453.51C2845.09 1457.32 2831.07 1468.74 2831.07 1488.2C2831.07 1507.66 2845.92 1519.08 2866.12 1519.08Z" fill="#101828"/>
</svg>
